<?xml version="1.0" encoding="utf-8"?>
<!-- Generator: Adobe Illustrator 24.0.2, SVG Export Plug-In . SVG Version: 6.00 Build 0)  -->
<svg version="1.1" id="Слой_1" xmlns="http://www.w3.org/2000/svg" xmlns:xlink="http://www.w3.org/1999/xlink" x="0px" y="0px"
	 viewBox="0 0 660 440" style="enable-background:new 0 0 660 440;" xml:space="preserve">
<style type="text/css">
	.st0{fill:#08090D;}
	.st1{fill:#4C4D51;}
</style>
<path class="st0" d="M366,245.1c-1.4,0-2.6-0.4-3.6-1.3c-0.9-0.9-1.4-2-1.4-3.4v-38.5c0-3.8,1.6-5.6,5-5.6h8.8
	c1.3,0,2.4,0.4,3.3,1.2c0.8,0.8,1.3,1.8,1.3,3.1c0,1.3-0.4,2.3-1.3,3.1c-0.9,0.8-1.9,1.2-3.2,1.2h-4.3v11.2h16.1
	c1.4,0,2.6,0.4,3.4,1.1c0.8,0.8,1.3,1.8,1.3,3.2c0,1.3-0.4,2.3-1.3,3.1c-0.9,0.8-2,1.2-3.4,1.2h-16.1v11.6h18.7
	c1.4,0,2.4,0.4,3.3,1.2c0.8,0.8,1.3,1.8,1.3,3.2c0,1.3-0.4,2.3-1.3,3.1c-0.9,0.8-1.9,1.2-3.3,1.2H366z"/>
<path class="st1" d="M389.3,205.3c-2.5,0-4.5-2-4.5-4.5c0-2.5,2-4.5,4.5-4.5s4.5,2,4.5,4.5C393.8,203.3,391.8,205.3,389.3,205.3z"/>
<path class="st0" d="M417.6,245.1c-3.3,0-4.8-1.4-4.8-4.5V222l-13.5-18.5c-0.6-0.8-0.9-1.7-0.9-2.8c0-1.3,0.4-2.3,1.3-3.2
	c0.9-0.9,2-1.3,3.3-1.3c1.8,0,3.1,0.6,4,1.8l10.6,15l2.5-3.5v0l0.5-0.7c0.9-1.3,2.4-2.1,3.9-2.1c0.3,0,0.5,0,0.8,0.1
	c2,0.4,3.5,2,3.8,3.8c0.2,1.1-0.1,2.2-0.6,3.2l-0.5,0.7l-5.5,7.5v18.6C422.3,243.7,420.8,245.1,417.6,245.1z"/>
<path class="st1" d="M432.1,205.3c-2.5,0-4.5-2-4.5-4.5c0-2.5,2-4.5,4.5-4.5s4.5,2,4.5,4.5C436.6,203.3,434.6,205.3,432.1,205.3z"/>
<path class="st0" d="M284,236.2c0.6,0.2,4,1.2,6.9-0.8c0.4-0.3,2.7-1.8,2.7-4.1c0-1.4-0.8-2.8-2.4-3.9c-4.3-3.1-9.7-3.9-14.4-6.2
	c-5.8-2.9-7.5-5.8-7.9-6.6c-1.1-2-1.3-4-1.4-5c-0.3-4,1.5-6.9,2.1-7.9c2.4-3.6,5.9-4.9,7.8-5.6c5.4-2,10.1-1,12.7-0.2
	c3.8,1.1,6.6,3,8.2,4.3c2.4,1.7,2.6,4.9,1,6.6c-1.4,1.5-4.3,1.6-6.2-0.1c-0.1-0.1-0.3-0.3-0.5-0.5c0,0-0.5-0.4-1-0.8
	c-0.2-0.1-1.4-0.9-2.8-1.5c-3.5-1.3-6.9-0.5-6.9-0.5c-0.9,0.2-3,0.8-4.5,2.7c-0.4,0.4-0.9,1.2-1,2.2c-0.1,1,0.3,1.8,0.4,2.1
	c0.9,1.8,2.7,2.6,3.3,2.9c3.9,1.9,8,3.3,11.8,5.2c5.6,2.7,10.7,5.9,10.7,13.2c0,5.1-2.3,9-6.7,11.3c-4.6,2.4-9,2.2-10.4,2.1
	c-1.6-0.1-2.9-0.5-3.7-0.7c-0.2-0.1-2.4-0.9-3-3c-0.3-1.1,0-2,0-2.3c0.1-0.4,0.4-1.5,1.5-2.3C282.1,235.7,283.8,236.1,284,236.2z"/>
<path class="st1" d="M271.6,239.5c-2.4,0-4.4-2-4.4-4.4s2-4.4,4.4-4.4c2.4,0,4.4,2,4.4,4.4S274,239.5,271.6,239.5z"/>
<path class="st0" d="M328.5,236.2c0.6,0.2,4,1.2,6.9-0.8c0.4-0.3,2.7-1.8,2.7-4.1c0-1.4-0.8-2.8-2.4-3.9c-4.3-3.1-9.7-3.9-14.4-6.2
	c-5.8-2.9-7.5-5.8-7.9-6.6c-1.1-2-1.3-4-1.4-5c-0.3-4,1.5-6.9,2.1-7.9c2.4-3.6,5.9-4.9,7.8-5.6c5.4-2,10.1-1,12.7-0.2
	c3.8,1.1,6.6,3,8.2,4.3c2.4,1.7,2.6,4.9,1,6.6c-1.4,1.5-4.3,1.6-6.2-0.1c-0.1-0.1-0.3-0.3-0.5-0.5c0,0-0.5-0.4-1-0.8
	c-0.2-0.1-1.4-0.9-2.8-1.5c-3.5-1.3-6.9-0.5-6.9-0.5c-0.9,0.2-3,0.8-4.5,2.7c-0.4,0.4-0.9,1.2-1,2.2c-0.1,1,0.3,1.8,0.4,2.1
	c0.9,1.8,2.7,2.6,3.3,2.9c3.9,1.9,8,3.3,11.8,5.2c5.6,2.7,10.7,5.9,10.7,13.2c0,5.1-2.3,9-6.7,11.3c-4.6,2.4-9,2.2-10.4,2.1
	c-1.6-0.1-2.9-0.5-3.7-0.7c-0.2-0.1-2.4-0.9-3-3c-0.3-1.1,0-2,0-2.3c0.1-0.4,0.4-1.5,1.5-2.3C326.6,235.7,328.3,236.1,328.5,236.2z"
	/>
<path class="st1" d="M316.1,239.5c-2.4,0-4.4-2-4.4-4.4s2-4.4,4.4-4.4c2.4,0,4.4,2,4.4,4.4S318.5,239.5,316.1,239.5z"/>
<path class="st0" d="M228.3,245.1c-1.4,0-2.6-0.4-3.6-1.3c-0.9-0.9-1.4-2-1.4-3.4v-38.5c0-3.8,1.6-5.6,5-5.6h8.8
	c1.3,0,2.4,0.4,3.3,1.2c0.8,0.8,1.3,1.8,1.3,3.1c0,1.3-0.4,2.3-1.3,3.1c-0.9,0.8-1.9,1.2-3.2,1.2H233v11.2H249
	c1.4,0,2.6,0.4,3.4,1.1c0.8,0.8,1.3,1.8,1.3,3.2c0,1.3-0.4,2.3-1.3,3.1c-0.9,0.8-2,1.2-3.4,1.2H233v11.6h18.7c1.4,0,2.4,0.4,3.3,1.2
	c0.8,0.8,1.3,1.8,1.3,3.2c0,1.3-0.4,2.3-1.3,3.1c-0.9,0.8-1.9,1.2-3.3,1.2H228.3z"/>
<path class="st1" d="M251.6,205.3c-2.5,0-4.5-2-4.5-4.5c0-2.5,2-4.5,4.5-4.5s4.5,2,4.5,4.5C256.2,203.3,254.1,205.3,251.6,205.3z"/>
</svg>
